<?xml version="1.0" encoding="utf-8"?>
<svg xmlns="http://www.w3.org/2000/svg" xmlns:xlink="http://www.w3.org/1999/xlink">

    <symbol viewBox="0 0 12 18" fill="none" xmlns="http://www.w3.org/2000/svg" id="check-sm">
        <path fill="currentColor" d="M10.287 5.3a1 1 0 0 1 1.426 1.4l-6.875 7a1 1 0 0 1-1.426 0L.287 10.52a1 1 0 1 1 1.426-1.402l2.412 2.456 6.162-6.274z"/>
    </symbol>

    <symbol viewBox="0 0 14 14" fill="none" xmlns="http://www.w3.org/2000/svg" id="check-circle-sm">
        <rect width="14" height="14" rx="7" fill="#2A231E"/>
        <path d="M9.91927 4.66675L5.90885 8.75008L4.08594 6.89402" stroke="white" stroke-width="2" stroke-linecap="round" stroke-linejoin="round"/>
    </symbol>

    <symbol viewBox="0 0 10 18" fill="none" xmlns="http://www.w3.org/2000/svg" id="close-sm">
        <path fill="currentColor" d="M2.207 4.793L5 7.585l2.793-2.792a1 1 0 0 1 1.414 1.414L6.415 9l2.792 2.793a1 1 0 0 1-1.414 1.414L5 10.415l-2.793 2.792a1 1 0 0 1-1.414-1.414L3.585 9 .793 6.207a1 1 0 0 1 1.414-1.414z"/>
    </symbol>

    <symbol viewBox="0 0 20 24" fill="none" xmlns="http://www.w3.org/2000/svg" id="whats-app">
        <path fill="currentColor" d="M2.326 11.767a7.907 7.907 0 1 1 3.682 6.685.93.93 0 0 0-.764-.105l-2.679.799 1.01-2.36a.93.93 0 0 0-.066-.856 7.866 7.866 0 0 1-1.183-4.163zM10.233 2C4.838 2 .465 6.373.465 11.767c0 1.71.44 3.32 1.214 4.72L.075 20.238a.93.93 0 0 0 1.122 1.256l4.186-1.248a9.726 9.726 0 0 0 4.85 1.288c5.394 0 9.767-4.373 9.767-9.768C20 6.373 15.627 2 10.233 2zm2.133 11.797l-1.224.861a8.686 8.686 0 0 1-1.84-1.416 9.49 9.49 0 0 1-1.51-1.967l.777-.66a.93.93 0 0 0 .22-1.145l-.99-1.86a.93.93 0 0 0-1.433-.264l-.294.256c-.706.616-1.124 1.628-.778 2.653a11.208 11.208 0 0 0 2.693 4.303c1.687 1.686 3.4 2.35 4.403 2.61.807.207 1.571-.072 2.11-.51l.55-.449a.93.93 0 0 0-.112-1.52l-1.561-.93a.93.93 0 0 0-1.012.038z"/>
    </symbol>

    <symbol viewBox="0 0 20 24" fill="none" xmlns="http://www.w3.org/2000/svg" id="viber">
        <path fill="currentColor" d="M14.731 2.383l.34.075a5.16 5.16 0 0 1 3.871 3.763 19.7 19.7 0 0 1 0 9.7 5.16 5.16 0 0 1-3.872 3.763l-.34.075a22.204 22.204 0 0 1-6.077.5L6 22.631a.75.75 0 0 1-1.24-.435l-.439-2.622a5.16 5.16 0 0 1-3.465-3.654 19.7 19.7 0 0 1 0-9.7 5.16 5.16 0 0 1 3.872-3.763l.34-.075a22.15 22.15 0 0 1 9.663 0zM5.394 3.846l-.34.076A3.66 3.66 0 0 0 2.31 6.59a18.2 18.2 0 0 0 0 8.962 3.66 3.66 0 0 0 2.745 2.668l.09.02a.75.75 0 0 1 .576.608l.294 1.758 1.872-1.675a.75.75 0 0 1 .553-.19c2 .142 4.008-.008 5.964-.445l.34-.076a3.66 3.66 0 0 0 2.744-2.668c.746-2.94.746-6.02 0-8.962a3.66 3.66 0 0 0-2.745-2.668l-.339-.076a20.65 20.65 0 0 0-9.01 0zm.46 2.348l.11.008a.745.745 0 0 1 .439.262 12 12 0 0 1 1.347 1.88c.253.448.089.902-.147 1.094l-.492.396c-.253.192-.22.568-.22.568s.73 2.765 3.46 3.462l.01-.006.011.001h.074c.12-.005.342-.04.484-.213l.393-.496c.184-.246.639-.393 1.087-.15.669.389 1.299.84 1.88 1.35.29.243.359.601.158.981a3.856 3.856 0 0 1-.814 1.011 1.6 1.6 0 0 1-.964.414c-.113 0-.225-.017-.348-.055-.421-.13-1.122-.427-2.277-1.056a13.604 13.604 0 0 1-2.782-2.04l-.028-.024-.023-.027-.038-.028-.024-.034a13.401 13.401 0 0 1-2.03-2.775 11.876 11.876 0 0 1-1.052-2.274l-.018-.01a1.138 1.138 0 0 1-.041-.475c.034-.27.164-.55.404-.827a4.108 4.108 0 0 1 1-.823h.015a.82.82 0 0 1 .537-.106zM10.58 5c1.506 0 2.81.502 3.84 1.487l.01.01a5.399 5.399 0 0 1 1.566 4.024.5.5 0 1 1-1-.042 4.352 4.352 0 0 0-.293-1.766 4.432 4.432 0 0 0-.978-1.508C12.894 6.413 11.844 6 10.58 6a.5.5 0 0 1 0-1zm-.12 3.317l.066.002c.598.032 1.125.222 1.512.612.385.39.573.92.605 1.52a.502.502 0 0 1-.668.513.499.499 0 0 1-.33-.46c-.023-.427-.149-.7-.318-.87-.168-.17-.435-.295-.853-.317a.5.5 0 1 1 .052-.998zm.135-1.674l.017.002c1.118.075 2.047.459 2.724 1.185.662.716.996 1.611.972 2.648a.5.5 0 1 1-1-.023c.019-.79-.228-1.429-.705-1.943-.465-.499-1.13-.803-2.041-.868h-.017a.5.5 0 1 1 0-1l.05-.001z"/>
    </symbol>

    <symbol viewBox="0 0 20 24" fill="none" xmlns="http://www.w3.org/2000/svg" id="telegram">
        <path fill="currentColor" d="M19.332 3.385a1.862 1.862 0 0 0-1.89-.295L1.152 9.668a1.857 1.857 0 0 0 .095 3.471l3.295 1.146 1.837 6.075a.907.907 0 0 0 .108.229c.007.01.017.019.024.03a.897.897 0 0 0 .256.24c.086.058.182.1.282.125h.011l.006.003c.06.012.122.019.184.019.006 0 .011-.003.017-.003a.905.905 0 0 0 .274-.048c.02-.007.038-.018.058-.027a.903.903 0 0 0 .186-.104l.138-.116 2.456-2.713 3.664 2.839c.323.25.72.387 1.129.388a1.868 1.868 0 0 0 1.825-1.485l2.966-14.56a1.845 1.845 0 0 0-.63-1.792zM7.609 14.575a.903.903 0 0 0-.247.46l-.282 1.367-.712-2.358 3.695-1.924-2.454 2.455zm7.548 4.821l-4.33-3.354a.91.91 0 0 0-1.23.108l-.787.869.278-1.352 6.439-6.439a.909.909 0 0 0-1.063-1.449l-9.241 4.812-3.386-1.24L18.18 4.814l-3.024 14.583z"/>
    </symbol>

    <symbol viewBox="0 0 17 24" fill="none" xmlns="http://www.w3.org/2000/svg" id="pin">
        <g fill="currentColor">
            <path d="M8.5 2c2.254 0 4.416.878 6.01 2.44A8.251 8.251 0 0 1 17 10.334c0 2.81-1.532 5.564-4.058 8.178a26.28 26.28 0 0 1-3.616 3.105c-.165.117-.286.2-.355.244a.864.864 0 0 1-.942 0 12.56 12.56 0 0 1-.355-.244 26.28 26.28 0 0 1-3.616-3.105C1.532 15.897 0 13.143 0 10.333c0-2.21.896-4.33 2.49-5.892A8.587 8.587 0 0 1 8.5 2zm0 1.667a6.87 6.87 0 0 0-4.808 1.952A6.601 6.601 0 0 0 1.7 10.333c0 2.295 1.337 4.697 3.592 7.031a24.61 24.61 0 0 0 3.377 2.9l-.169-.12.025-.018c.132-.097.272-.2.418-.312l.223-.172a24.61 24.61 0 0 0 2.542-2.278c2.255-2.334 3.592-4.736 3.592-7.03a6.601 6.601 0 0 0-1.992-4.715A6.87 6.87 0 0 0 8.5 3.667z"/><path d="M8.5 7a3.5 3.5 0 1 1 0 7 3.5 3.5 0 0 1 0-7zm0 1.75a1.75 1.75 0 1 0 0 3.5 1.75 1.75 0 0 0 0-3.5z"/>
        </g>
    </symbol>

    <symbol viewBox="0 0 14 24" fill="none" xmlns="http://www.w3.org/2000/svg" id="close">
        <path fill="currentColor" d="M.293 5.293a1 1 0 0 1 1.414 0L7 10.585l5.293-5.292a1 1 0 0 1 1.32-.083l.094.083a1 1 0 0 1 0 1.414L8.414 12l5.293 5.293a1 1 0 0 1 .083 1.32l-.083.094a1 1 0 0 1-1.414 0L7 13.414l-5.293 5.293a1 1 0 0 1-1.32.083l-.094-.083a1 1 0 0 1 0-1.414L5.585 12 .293 6.707a1 1 0 0 1-.083-1.32l.083-.094z"/>
    </symbol>

    <symbol viewBox="0 0 20 24" fill="none" xmlns="http://www.w3.org/2000/svg" id="clock">
        <path fill="currentColor" d="M10 2a10 10 0 1 0 0 20 10 10 0 0 0 0-20zm0 18a8 8 0 1 1 0-16 8 8 0 0 1 0 16zm0-14a1 1 0 0 0-1 1v4H7a1 1 0 0 0 0 2h3a1 1 0 0 0 1-1V7a1 1 0 0 0-1-1z"/>
    </symbol>

    <symbol viewBox="0 0 16 24" fill="none" xmlns="http://www.w3.org/2000/svg" id="arrow-down">
        <path fill="currentColor" d="M.293 8.293a1 1 0 0 1 1.414 0L8 14.585l6.293-6.292a1 1 0 0 1 1.32-.083l.094.083a1 1 0 0 1 0 1.414l-7 7a1 1 0 0 1-1.414 0l-7-7a1 1 0 0 1 0-1.414z"/>
    </symbol>

    <symbol viewBox="0 0 9 24" fill="none" xmlns="http://www.w3.org/2000/svg" id="arrow-left">
        <path fill="currentColor" d="M7.293 4.293a1 1 0 1 1 1.414 1.414L2.415 12l6.292 6.293a1 1 0 0 1 .083 1.32l-.083.094a1 1 0 0 1-1.414 0l-7-7a1 1 0 0 1 0-1.414l7-7z"/>
    </symbol>

    <symbol viewBox="0 0 9 24" fill="none" xmlns="http://www.w3.org/2000/svg" id="arrow-right">
        <path fill="currentColor" d="M.293 4.293a1 1 0 0 1 1.414 0l7 7a1 1 0 0 1 0 1.414l-7 7a1 1 0 1 1-1.414-1.414L6.585 12 .293 5.707a1 1 0 0 1-.083-1.32l.083-.094z"/>
    </symbol>

    <symbol viewBox="0 0 20 24" fill="none" xmlns="http://www.w3.org/2000/svg" id="zoom">
        <path fill="currentColor" d="M9 2a9 9 0 0 1 7.175 14.434l-.143.183 3.676 3.676a1 1 0 0 1 .083 1.32l-.083.094a1 1 0 0 1-1.415 0l-3.676-3.676-.183.144a8.957 8.957 0 0 1-5.169 1.821L9 20A9 9 0 1 1 9 2zm0 2a7 7 0 1 0 4.789 12.106l.081-.08.073-.083.088-.079.075-.075a6.974 6.974 0 0 0 1.89-4.548L16 11a7 7 0 0 0-7-7z"/>
    </symbol>

    <symbol viewBox="0 0 20 24" fill="none" xmlns="http://www.w3.org/2000/svg" id="menu">
        <path fill="currentColor" d="M19 17a1 1 0 0 1 0 2H1a1 1 0 0 1 0-2h18zm0-6a1 1 0 0 1 0 2H1a1 1 0 1 1 0-2h18zm0-6a1 1 0 0 1 0 2H1a1 1 0 1 1 0-2h18z"/>
    </symbol>

    <symbol viewBox="0 0 20 24" fill="none" xmlns="http://www.w3.org/2000/svg" id="phone">
        <path fill="currentColor" d="M2.74 2h2.732a2.74 2.74 0 0 1 2.742 2.362c.107.807.304 1.6.589 2.361a2.732 2.732 0 0 1-.62 2.89l-.655.654.07.109a13.693 13.693 0 0 0 4.011 4.005l.108.067.66-.655a2.742 2.742 0 0 1 1.165-.683l.19-.048a2.744 2.744 0 0 1 1.534.114c.764.285 1.559.483 2.376.59a2.733 2.733 0 0 1 2.357 2.777v-.022 2.732a2.73 2.73 0 0 1-1.863 2.604 2.763 2.763 0 0 1-1.14.131 19.009 19.009 0 0 1-8.278-2.937 18.705 18.705 0 0 1-5.759-5.747A18.954 18.954 0 0 1 .011 4.983a2.732 2.732 0 0 1 1.623-2.75A2.75 2.75 0 0 1 2.739 2zm0 1.824a.917.917 0 0 0-.865.621.898.898 0 0 0-.045.36 17.128 17.128 0 0 0 2.667 7.514 16.898 16.898 0 0 0 5.209 5.197 17.173 17.173 0 0 0 7.47 2.657.915.915 0 0 0 .996-.916v-2.759a.911.911 0 0 0-.777-.924 12.666 12.666 0 0 1-2.77-.69.915.915 0 0 0-.96.202l-1.16 1.159c-.292.29-.74.35-1.098.147a15.519 15.519 0 0 1-5.825-5.814.91.91 0 0 1 .148-1.096l1.157-1.155a.912.912 0 0 0 .205-.964 12.585 12.585 0 0 1-.689-2.754.912.912 0 0 0-.922-.785H2.74z"/>
    </symbol>

    <symbol viewBox="0 0 20 24" fill="none" xmlns="http://www.w3.org/2000/svg" id="at">
        <path fill="currentColor" d="M13.827 2.761A10 10 0 0 1 20 12c0 2.79-1.219 4.75-3.625 4.75-1.306 0-2.262-.578-2.864-1.552a4.75 4.75 0 1 1-.755-7.067 1 1 0 0 1 1.994.119V12c0 1.825.575 2.75 1.625 2.75S18 13.825 18 12a8 8 0 1 0-8 8c1.668 0 3.454-.507 4.696-1.333a1 1 0 1 1 1.108 1.666C14.222 21.383 12.05 22 10 22a10 10 0 1 1 3.827-19.239zM10 9.25a2.75 2.75 0 1 0 0 5.5 2.75 2.75 0 0 0 0-5.5z"/>
    </symbol>

    <symbol viewBox="0 0 18 24" fill="none" xmlns="http://www.w3.org/2000/svg" id="check">
        <path fill="currentColor" d="M16.293 6.293a1 1 0 0 1 1.414 1.414l-11 11a1 1 0 0 1-1.414 0l-5-5a1 1 0 0 1 1.414-1.414L6 16.585 16.293 6.293z"/>
    </symbol>

    <symbol viewBox="0 0 20 24" fill="none" xmlns="http://www.w3.org/2000/svg" id="instagram">
        <path fill="currentColor" d="M14.545 2A5.455 5.455 0 0 1 20 7.455v9.09A5.455 5.455 0 0 1 14.545 22h-9.09A5.455 5.455 0 0 1 0 16.545v-9.09A5.455 5.455 0 0 1 5.455 2h9.09zm0 1.818h-9.09a3.636 3.636 0 0 0-3.637 3.637v9.09a3.636 3.636 0 0 0 3.637 3.637h9.09a3.636 3.636 0 0 0 3.637-3.637v-9.09a3.636 3.636 0 0 0-3.637-3.637zm-3.839 3.646a4.546 4.546 0 1 1-1.333 8.994 4.546 4.546 0 0 1 1.333-8.994zM8.783 9.54a2.727 2.727 0 1 0 2.512 4.841A2.727 2.727 0 0 0 8.783 9.54zm6.226-3.45a.91.91 0 1 1 0 1.82.91.91 0 0 1-.01-1.818z"/>
    </symbol>

    <symbol viewBox="0 0 20 24" fill="none" xmlns="http://www.w3.org/2000/svg" id="settings">
        <path fill="currentColor" d="M13.82 20H19a1 1 0 0 0 0-2h-5.18a3 3 0 0 0-5.64 0H1a1 1 0 0 0 0 2h7.18a3 3 0 0 0 5.64 0zM10 19a1 1 0 1 1 2 0 1 1 0 0 1-2 0zm-2.18-6H19a1 1 0 0 0 0-2H7.82a3 3 0 0 0-5.64 0H1a1 1 0 0 0 0 2h1.18a3 3 0 0 0 5.64 0zM4 12a1 1 0 1 1 2 0 1 1 0 0 1-2 0zm11.82-6H19a1 1 0 1 0 0-2h-3.18a3 3 0 0 0-5.64 0H1a1 1 0 0 0 0 2h9.18a3 3 0 0 0 5.64 0zM12 5a1 1 0 1 1 2 0 1 1 0 0 1-2 0z"/>
    </symbol>

    <symbol viewBox="0 0 28 40" fill="none" xmlns="http://www.w3.org/2000/svg" id="battery">
        <path fill="currentColor" d="M22.4 11c.594 0 1.164.237 1.584.659.42.422.656.994.656 1.591v1.125h1.12c.594 0 1.164.237 1.584.659.42.422.656.994.656 1.591v6.75c0 .597-.237 1.168-.657 1.59-.42.422-.99.66-1.583.66h-1.12v1.125c0 .596-.237 1.168-.657 1.59-.42.422-.99.66-1.583.66H2.24a2.235 2.235 0 0 1-1.584-.659A2.255 2.255 0 0 1 0 26.75v-13.5c0-.597.236-1.169.656-1.591.42-.422.99-.659 1.584-.659H22.4zm0 2.25H2.24v13.5H22.4v-3.375h3.36v-6.75H22.4V13.25zM6.72 15.5v9H4.48v-9h2.24zm3.982 0v9h-2.24v-9h2.24zm3.982 0v9h-2.24v-9h2.24zm3.983 0v9h-2.24v-9h2.24z"/>
    </symbol>

    <symbol viewBox="0 0 24 40" fill="none" xmlns="http://www.w3.org/2000/svg" id="document">
        <path fill="currentColor" d="M4.424 35h15.152C22.53 35 24 33.482 24 30.474V17.346c0-1.866-.2-2.675-1.341-3.86l-7.877-8.112C13.7 4.246 12.813 4 11.202 4H4.423C1.484 4 0 5.532 0 8.54v21.934C0 33.496 1.484 35 4.424 35zm.113-2.328c-1.47 0-2.24-.795-2.24-2.24V8.583c0-1.432.77-2.256 2.255-2.256h6.335v8.4c0 1.822.913 2.719 2.683 2.719h8.133V30.43c0 1.446-.757 2.241-2.24 2.241H4.537zm9.29-17.409c-.557 0-.786-.23-.786-.81V6.777l8.219 8.488-7.434-.001zm3.424 6.16H6.42a.865.865 0 0 0-.885.882c0 .506.372.897.885.897h10.83a.861.861 0 0 0 .63-.259.886.886 0 0 0 .255-.638.874.874 0 0 0-.885-.882zm0 5.046H6.42c-.514 0-.885.405-.885.91 0 .493.372.869.885.869h10.83c.5 0 .884-.376.884-.868 0-.506-.385-.91-.884-.91z"/>
    </symbol>

    <symbol viewBox="0 0 35 40" fill="none" xmlns="http://www.w3.org/2000/svg" id="engine">
        <path fill="currentColor" d="M32.625 17.25H30.84l-4.965-4.965a2.23 2.23 0 0 0-1.59-.66h-5.723V8.25h3.375a1.125 1.125 0 1 0 0-2.25h-9a1.125 1.125 0 0 0 0 2.25h3.376v3.375H7.874a2.25 2.25 0 0 0-2.25 2.25v7.313H2.25v-3.375a1.125 1.125 0 0 0-2.25 0v9a1.125 1.125 0 0 0 2.25 0v-3.375h3.375v2.909a2.23 2.23 0 0 0 .66 1.59l5.527 5.528a2.231 2.231 0 0 0 1.591.66h10.882a2.232 2.232 0 0 0 1.59-.66L30.84 28.5h1.785a2.25 2.25 0 0 0 2.25-2.25V19.5a2.25 2.25 0 0 0-2.25-2.25zm0 9h-2.25a1.126 1.126 0 0 0-.796.33l-5.294 5.295H13.403l-5.528-5.528V13.875h16.41l5.294 5.296a1.124 1.124 0 0 0 .796.329h2.25v6.75z"/>
    </symbol>

    <symbol viewBox="0 0 32 40" fill="none" xmlns="http://www.w3.org/2000/svg" id="pricetag">
        <path fill="currentColor" d="M28.603 4.125A3.263 3.263 0 0 1 31.871 7.4v8.648a2.27 2.27 0 0 1-.661 1.601L13.939 34.92a3.278 3.278 0 0 1-4.628-.002L1.083 26.69a3.278 3.278 0 0 1 .002-4.628L18.364 4.783c.425-.422.999-.658 1.598-.658h8.641zm.002 2.5h-8.548L2.855 23.828a.778.778 0 0 0-.217.427l-.01.122c0 .206.082.403.225.547l8.224 8.224a.778.778 0 0 0 1.096.003l17.198-17.2V7.394a.767.767 0 0 0-.025-.199l-.032-.095a.766.766 0 0 0-.71-.475zM25.86 8.921a2.25 2.25 0 1 1-1.722 4.157 2.25 2.25 0 0 1 1.722-4.157z"/>
    </symbol>

    <symbol viewBox="0 0 30 40" fill="none" xmlns="http://www.w3.org/2000/svg" id="letter">
        <path fill="currentColor" d="M28.16 5.562a1 1 0 0 1 1.28 1.28l-9.782 27.077a1.824 1.824 0 0 1-2.644.775 1.793 1.793 0 0 1-.66-.745l-5.101-10.203-10.17-5.085a1.825 1.825 0 0 1-.675-.531l-.101-.142a1.825 1.825 0 0 1 0-1.972c.189-.294.458-.528.853-.704l27-9.75zm-1.325 2.603L2.286 17.027l10.16 5.08a1 1 0 0 1 .383.336l.065.112L17.97 32.71l8.864-24.546z"/>
    </symbol>

    <symbol viewBox="0 0 24 40" fill="none" xmlns="http://www.w3.org/2000/svg" id="lucide">
        <path fill="currentColor" d="M22.5 7a1 1 0 0 1 1 1v12a1 1 0 0 1-1 1H13v11a1 1 0 0 1-.883.993L12 33a1 1 0 0 1-1-1V21H2.5v11a1 1 0 0 1-.883.993L1.5 33a1 1 0 0 1-1-1V8a1 1 0 1 1 2 0v11H11V8a1 1 0 0 1 .883-.993L12 7a1 1 0 0 1 1 1v11h8.5V8a1 1 0 0 1 .883-.993L22.5 7z"/>
    </symbol>

    <symbol viewBox="0 0 34 40" fill="none" xmlns="http://www.w3.org/2000/svg" id="car">
        <path fill="currentColor" d="M32.625 17.125h-1.519L27.2 8.335A2.25 2.25 0 0 0 25.144 7H8.606A2.25 2.25 0 0 0 6.55 8.336l-3.906 8.789H1.125a1.125 1.125 0 1 0 0 2.25H2.25v11.25a2.25 2.25 0 0 0 2.25 2.25h3.375a2.25 2.25 0 0 0 2.25-2.25v-2.25h13.5v2.25a2.25 2.25 0 0 0 2.25 2.25h3.375a2.25 2.25 0 0 0 2.25-2.25v-11.25h1.125a1.125 1.125 0 1 0 0-2.25zM8.606 9.25h16.538l3.5 7.875H5.106l3.5-7.875zM29.25 30.625h-3.375V27.25a1.125 1.125 0 0 0-1.125-1.125H9a1.125 1.125 0 0 0-1.125 1.125v3.375H4.5v-11.25h24.75v11.25z"/>
    </symbol>

    <symbol viewBox="0 0 30 40" fill="none" xmlns="http://www.w3.org/2000/svg" id="history">
        <path fill="currentColor" d="M4.618 9.604c5.692-5.685 14.947-5.625 20.674.103 5.73 5.73 5.79 14.99.096 20.682-5.694 5.693-14.952 5.634-20.681-.096A14.715 14.715 0 0 1 .51 17.873a1.126 1.126 0 1 1 2.23.305 12.465 12.465 0 0 0 3.557 10.525c4.867 4.866 12.701 4.895 17.501.096 4.799-4.8 4.77-12.634-.096-17.502-4.864-4.863-12.694-4.894-17.494-.102l1.122.005a1.124 1.124 0 1 1-.01 2.25l-3.82-.018a1.125 1.125 0 0 1-1.118-1.121l-.02-3.816a1.125 1.125 0 1 1 2.25-.012l.006 1.12zm10.38 3.27a1.125 1.125 0 0 1 1.125 1.125v5.535l3.421 3.42a1.124 1.124 0 1 1-1.59 1.591l-4.08-4.08V14A1.125 1.125 0 0 1 15 12.875"/>
    </symbol>

    <symbol viewBox="0 0 30 40" fill="none" xmlns="http://www.w3.org/2000/svg" id="speed">
        <path fill="currentColor" d="M15 7c8.285 0 15 6.715 15 15a14.955 14.955 0 0 1-4.393 10.606l-1.591-1.59A12.71 12.71 0 0 0 27.75 22c0-7.042-5.708-12.75-12.75-12.75S2.25 14.958 2.25 22a12.71 12.71 0 0 0 3.734 9.016l-1.589 1.589A14.956 14.956 0 0 1 0 22C0 13.715 6.716 7 15 7zM8.625 17.5l7.794 4.5-1.125 1.95-7.794-4.5 1.125-1.95z"/>
    </symbol>

    <symbol viewBox="0 0 30 40" fill="none" xmlns="http://www.w3.org/2000/svg" id="wheel">
        <path fill="currentColor" d="M21.75 4c4.498 0 7.75 7.226 7.75 16 0 8.774-3.252 16-7.75 16H8.25C3.752 36 .5 28.774.5 20c0-8.774 3.252-16 7.75-16h13.5zm0 2h-9.66C14.484 8.74 16 14.009 16 20c0 5.992-1.517 11.262-3.91 14.001L21.75 34c2.957 0 5.75-6.206 5.75-14S24.707 6 21.75 6zM8.25 6C5.293 6 2.5 12.206 2.5 20s2.793 14 5.75 14S14 27.794 14 20c0-7.669-2.703-13.8-5.607-13.995L8.25 6zm0 4c2.158 0 3.25 4.366 3.25 10s-1.092 10-3.25 10S5 25.634 5 20s1.092-10 3.25-10zm0 2.193l-.015.023c-.21.357-.422.928-.606 1.662C7.231 15.47 7 17.658 7 20s.231 4.53.63 6.122c.183.734.394 1.305.605 1.662l.015.022.015-.022c.187-.317.375-.804.543-1.424l.063-.238c.34-1.363.559-3.162.615-5.121L9 21a1 1 0 0 1 0-2h.486c-.056-1.96-.275-3.759-.615-5.122-.184-.734-.395-1.305-.606-1.662l-.015-.023z"/>
    </symbol>

    <symbol viewBox="0 0 46 52" fill="none" xmlns="http://www.w3.org/2000/svg" id="car-lg">
        <path fill="currentColor" d="M44 22.5h-2.025l-5.209-11.719A3 3 0 0 0 34.025 9h-22.05a3 3 0 0 0-2.741 1.781L4.025 22.5H2a1.5 1.5 0 1 0 0 3h1.5v15a3 3 0 0 0 3 3H11a3 3 0 0 0 3-3v-3h18v3a3 3 0 0 0 3 3h4.5a3 3 0 0 0 3-3v-15H44a1.5 1.5 0 1 0 0-3zM11.975 12h22.05l4.667 10.5H7.308L11.975 12zM39.5 40.5H35V36a1.5 1.5 0 0 0-1.5-1.5h-21A1.5 1.5 0 0 0 11 36v4.5H6.5v-15h33v15z"/>
    </symbol>

    <symbol viewBox="0 0 48 52" fill="none" xmlns="http://www.w3.org/2000/svg" id="graph-lg">
        <path fill="currentColor" d="m44.93 14.93h3v15h-15v-3h9.867l-15.867-15.868-9 9-17.93-17.953 2.109-2.109 15.821 15.797 9-9 18 18z" transform="translate(0 11)" />
    </symbol>

    <symbol viewBox="0 0 36 52" fill="none" xmlns="http://www.w3.org/2000/svg" id="setup-lg">
        <path fill="currentColor" d="M12 30.5a6 6 0 0 1 5.81 4.5H34.5a1.5 1.5 0 0 1 .27 2.976L34.5 38l-16.69.003a6 6 0 0 1-11.621 0L1.499 38a1.5 1.5 0 0 1-.27-2.976L1.5 35h4.69a6 6 0 0 1 5.81-4.5zm0 3a3 3 0 1 0 0 6 3 3 0 0 0 0-6zm12-24a6 6 0 0 1 5.81 4.5h4.69a1.5 1.5 0 0 1 .27 2.976L34.5 17l-4.69.003a6 6 0 0 1-11.621 0L1.499 17a1.5 1.5 0 0 1-.27-2.976L1.5 14h16.69a6 6 0 0 1 5.81-4.5zm0 3a3 3 0 1 0 0 6 3 3 0 0 0 0-6z" />
    </symbol>

    <symbol viewBox="0 0 40 52" fill="none" xmlns="http://www.w3.org/2000/svg" id="speed-lg">
        <path fill="currentColor" d="M20 7c11.046 0 20 8.954 20 20a19.94 19.94 0 0 1-5.858 14.142l-2.121-2.121A16.947 16.947 0 0 0 37 27c0-9.389-7.611-17-17-17S3 17.611 3 27c0 4.694 1.903 8.944 4.98 12.02l-2.12 2.12A19.941 19.941 0 0 1 0 27C0 15.954 8.954 7 20 7zm-8.5 14l10.392 6-1.5 2.598-10.392-6L11.5 21z" />
    </symbol>

    <symbol viewBox="0 0 128 42" fill="none" xmlns="http://www.w3.org/2000/svg" id="logo">
        <g fill="none">
            <path fill="#D1B096" d="M0 2.084l6.703 11.92-1.59-6.283s14.41.323 21.359 1.068c6.948.745 14.644 1.816 24.042 2.816 8.662.922 22.198 2.142 22.198 2.142s-13.918-2.374-22.198-3.715c-7.206-1.167-22.452-3.057-22.452-3.057s10.323-3.301 17.12-4.152c7.406-.926 11.693-1.1 19.08 0C74.85 4.4 90.226 11.646 90.226 11.646s15.566.349 24.986 3.384c5.174 1.668 9.987 3.862 12.788 5.793l-.337-.83s-8.425-5.036-16.191-7.12c-7.879-2.115-20.743-2.623-20.743-2.623S76.639 3.05 66.5 1.322C59.71.165 55.478-.14 48.594.055c-14.903.422-23.72 7.253-37.8 6.008C2.912 5.366 0 2.084 0 2.084z"/>
            <path fill="currentColor" d="M9.232 37.866V35.36h12.052v2.507H9.232zm8.004-13.294l8.28 17.25h-3.243l-7.521-16.1h1.173l-7.521 16.1H5.161l8.28-17.25h3.795zm35.66 0v17.25h-2.898v-16.33l.943.046-8.028 16.284h-3.242l-8.027-16.26.943-.047v16.307h-2.899v-17.25h4.646l7.728 15.94h-1.517l7.704-15.94h4.646zm31.235 10.42c-.153 1.41-.652 2.66-1.495 3.748-.828 1.074-1.917 1.91-3.266 2.507-1.35.598-2.89.897-4.623.897-1.932 0-3.626-.375-5.083-1.127-1.457-.751-2.592-1.794-3.404-3.128-.813-1.349-1.22-2.913-1.22-4.692 0-1.778.407-3.335 1.22-4.669.812-1.349 1.947-2.4 3.404-3.15 1.457-.752 3.15-1.128 5.083-1.128 1.733 0 3.273.3 4.623.897 1.35.598 2.438 1.434 3.266 2.507.843 1.074 1.342 2.323 1.495 3.75h-3.06c-.168-.92-.536-1.71-1.103-2.37-.552-.659-1.273-1.165-2.162-1.518-.89-.368-1.917-.552-3.082-.552-1.35 0-2.523.253-3.52.76a5.437 5.437 0 0 0-2.276 2.161c-.537.936-.805 2.04-.805 3.312 0 1.273.268 2.377.805 3.312a5.438 5.438 0 0 0 2.277 2.162c.996.506 2.17.76 3.519.76 1.165 0 2.192-.177 3.082-.53.89-.352 1.61-.858 2.162-1.518.567-.674.935-1.472 1.104-2.392h3.059zm6.37 2.874V35.36h12.051v2.507H90.5zm8.003-13.294l8.28 17.25h-3.243l-7.52-16.1h1.172l-7.52 16.1h-3.244l8.28-17.25h3.795zm14.569 7.774h7.015c1.012 0 1.809-.23 2.392-.69.598-.46.897-1.088.897-1.886 0-.812-.299-1.441-.897-1.886-.583-.46-1.38-.69-2.392-.69h-7.452l1.357-1.702v16.33h-3.036v-17.25h9.407c1.211 0 2.269.223 3.174.667.92.43 1.633 1.035 2.139 1.817.521.767.782 1.672.782 2.714 0 1.012-.261 1.91-.782 2.691-.506.767-1.219 1.373-2.139 1.817-.905.43-1.963.644-3.174.644h-7.291v-2.576zm3.404 1.403h3.565l6.854 8.073h-3.634l-6.785-8.073z"/>
        </g>
    </symbol>

</svg>